HIERARCHY
ROOT Hips
{
	OFFSET -0.001795 -0.223333 0.028219
	CHANNELS 6 Xposition Yposition Zposition Zrotation Yrotation Xrotation 
	JOINT LeftUpLeg
	{
		OFFSET 0.069520 -0.091406 -0.006815
		CHANNELS 3 Zrotation Yrotation Xrotation
		JOINT LeftLeg
		{
			OFFSET 0.034277 -0.375199 -0.004496
			CHANNELS 3 Zrotation Yrotation Xrotation
			JOINT LeftFoot
			{
				OFFSET -0.013596 -0.397961 -0.043693
				CHANNELS 3 Zrotation Yrotation Xrotation
				JOINT LeftToe
				{
					OFFSET 0.026358 -0.055791 0.119288
					CHANNELS 3 Zrotation Yrotation Xrotation
					End Site
					{
						OFFSET 0.000000 0.000000 0.000000
					}
				}
			}
		}
	}
	JOINT RightUpLeg
	{
		OFFSET -0.067670 -0.090522 -0.004320
		CHANNELS 3 Zrotation Yrotation Xrotation
		JOINT RightLeg
		{
			OFFSET -0.038290 -0.382569 -0.008850
			CHANNELS 3 Zrotation Yrotation Xrotation
			JOINT RightFoot
			{
				OFFSET 0.015774 -0.398415 -0.042312
				CHANNELS 3 Zrotation Yrotation Xrotation
				JOINT RightToe
				{
					OFFSET -0.025372 -0.048144 0.123348
					CHANNELS 3 Zrotation Yrotation Xrotation
					End Site
					{
						OFFSET 0.000000 0.000000 0.000000
					}
				}
			}
		}
	}
	JOINT Spine
	{
		OFFSET -0.002533 0.108963 -0.026696
		CHANNELS 3 Zrotation Yrotation Xrotation
		JOINT Spine1
		{
			OFFSET 0.005487 0.135180 0.001092
			CHANNELS 3 Zrotation Yrotation Xrotation
			JOINT Spine2
			{
				OFFSET 0.001457 0.052922 0.025425
				CHANNELS 3 Zrotation Yrotation Xrotation
				JOINT Neck
				{
					OFFSET -0.002778 0.213870 -0.042857
					CHANNELS 3 Zrotation Yrotation Xrotation
					JOINT Head
					{
						OFFSET 0.005152 0.064970 0.051349
						CHANNELS 3 Zrotation Yrotation Xrotation
						End Site
						{
							OFFSET 0.000000 0.000000 0.000000
						}
					}
				}
				JOINT LeftShoulder
				{
					OFFSET 0.078845 0.121749 -0.034090
					CHANNELS 3 Zrotation Yrotation Xrotation
					JOINT LeftArm
					{
						OFFSET 0.090977 0.030469 -0.008868
						CHANNELS 3 Zrotation Yrotation Xrotation
						JOINT LeftForeArm
						{
							OFFSET 0.259612 -0.012772 -0.027456
							CHANNELS 3 Zrotation Yrotation Xrotation
							JOINT LeftHand
							{
								OFFSET 0.249234 0.008986 -0.001171
								CHANNELS 3 Zrotation Yrotation Xrotation
								End Site
								{
									OFFSET 0.000000 0.000000 0.000000
								}
							}
						}
					}
				}
				JOINT RightShoulder
				{
					OFFSET -0.081759 0.118833 -0.038615
					CHANNELS 3 Zrotation Yrotation Xrotation
					JOINT RightArm
					{
						OFFSET -0.096012 0.032551 -0.009143
						CHANNELS 3 Zrotation Yrotation Xrotation
						JOINT RightForeArm
						{
							OFFSET -0.253742 -0.013329 -0.021401
							CHANNELS 3 Zrotation Yrotation Xrotation
							JOINT RightHand
							{
								OFFSET -0.255298 0.007772 -0.005559
								CHANNELS 3 Zrotation Yrotation Xrotation
								End Site
								{
									OFFSET 0.000000 0.000000 0.000000
								}
							}
						}
					}
				}
			}
		}
	}
}
MOTION
Frames: 9
Frame Time: 0.050000
0.000000 0.949485 0.000000 -2.071036 -3.070464 7.271705 6.074929 -0.307534 -4.213091 1.112839 0.008919 -3.069628 0.857376 5.559349 11.772980 0.000000 0.000000 0.000000 -1.941458 0.396182 -3.706679 -3.213516 -0.128394 -6.643315 2.641164 -1.796714 15.385343 0.000000 0.000000 0.000000 3.702544 0.377895 -6.526186 -2.122762 0.988108 -3.089191 -1.466876 3.212364 6.245054 6.153553 -4.031278 -5.724579 0.000000 0.000000 0.000000 -8.368599 6.377543 -3.602604 -48.616192 -8.393561 -2.568975 -154.475733 -68.976042 148.883292 0.000000 0.000000 0.000000 7.781539 -11.072901 -5.215724 57.575987 4.868389 -3.179601 142.303191 72.882581 136.521815 0.000000 0.000000 0.000000 
0.000179 0.948457 0.001107 -2.607138 -3.117820 7.844800 6.701217 -0.292649 -3.791851 1.029226 0.087579 -4.683234 0.915624 5.641749 11.774852 0.000000 0.000000 0.000000 -1.527745 0.424661 -4.083252 -2.951276 -0.158132 -6.931438 2.683417 -1.732441 15.391579 0.000000 0.000000 0.000000 4.465776 0.391009 -6.538767 -2.306682 1.073342 -1.950521 -1.872267 3.497161 3.955259 6.517794 -4.473020 -4.292070 0.000000 0.000000 0.000000 -9.297429 7.726923 -4.399893 -46.903059 -7.135444 -2.760225 -153.378901 -64.457069 144.004147 0.000000 0.000000 0.000000 7.302039 -12.972398 -5.914423 57.841808 3.971500 -3.347563 141.184859 70.032688 132.684665 0.000000 0.000000 0.000000 
0.000467 0.948424 0.001658 -1.989802 -3.580195 7.063746 5.993545 -0.247144 -2.861513 0.926029 0.093663 -4.674626 1.030993 5.805668 11.837026 0.000000 0.000000 0.000000 -2.002053 0.410358 -3.872999 -3.418122 -0.071821 -5.896924 2.736896 -1.445247 14.746404 0.000000 0.000000 0.000000 4.088060 0.324683 -5.679964 -1.336541 0.643038 -4.151777 -3.413962 4.195876 5.683179 7.447226 -5.200113 -4.357199 0.000000 0.000000 0.000000 -8.998689 7.912463 -4.467160 -46.611955 -6.620915 -3.103303 -151.283512 -62.295693 139.020442 0.000000 0.000000 0.000000 9.905493 -11.927379 -5.893925 56.954294 5.394213 -2.820351 142.290775 70.416109 135.239045 0.000000 0.000000 0.000000 
0.000604 0.948795 0.001797 -2.084008 -3.664730 7.380715 6.556614 -0.256617 -3.131173 0.085258 0.157114 -4.755241 1.044300 5.855456 12.003744 0.000000 0.000000 0.000000 -1.787244 0.419681 -4.004230 -3.647459 -0.088477 -6.287051 2.843161 -1.398663 15.051117 0.000000 0.000000 0.000000 4.547431 0.373766 -6.186829 -1.777468 0.831171 -3.433853 -3.313198 3.689100 4.717984 7.563252 -5.439951 -3.509539 0.000000 0.000000 0.000000 -8.442271 9.412033 -4.934122 -46.202465 -6.030841 -3.205753 -150.556820 -59.347651 135.835620 0.000000 0.000000 0.000000 8.541341 -12.239067 -5.827958 57.739665 6.036646 -2.439750 142.442392 67.039026 132.141915 0.000000 0.000000 0.000000 
0.000691 0.948951 0.001556 -1.730433 -3.752449 7.258600 5.906640 -0.244308 -2.769087 0.512861 0.145449 -5.216035 1.010625 5.856952 12.256917 0.000000 0.000000 0.000000 -1.934998 0.431966 -4.133181 -4.101560 -0.041458 -5.906194 2.815595 -1.386483 14.863168 0.000000 0.000000 0.000000 4.330452 0.374575 -6.223259 -1.522882 0.720468 -3.723460 -3.599931 4.212479 5.022020 7.616015 -5.354006 -4.118399 0.000000 0.000000 0.000000 -7.627045 8.748096 -4.521855 -45.142910 -6.311045 -3.067651 -149.864113 -57.494171 132.770233 0.000000 0.000000 0.000000 7.670583 -11.895307 -5.484047 57.995565 7.485946 -1.713802 140.806810 65.360499 128.879597 0.000000 0.000000 0.000000 
0.000656 0.949308 0.000943 -1.785705 -3.565885 7.578684 6.281179 -0.259739 -3.055280 0.011600 0.188373 -5.464317 0.887046 5.724012 12.463973 0.000000 0.000000 0.000000 -1.775196 0.450618 -4.364106 -4.245086 -0.051122 -6.132046 2.772983 -1.542650 15.117066 0.000000 0.000000 0.000000 4.648340 0.388869 -6.366033 -1.589110 0.750216 -3.924618 -3.858026 4.371319 5.007338 7.828442 -5.478332 -4.246051 0.000000 0.000000 0.000000 -6.767713 8.765698 -4.361811 -44.779242 -7.350674 -2.684711 -148.985360 -55.797964 129.546455 0.000000 0.000000 0.000000 6.513478 -11.411402 -5.065009 57.978788 8.753290 -1.036288 140.253098 64.069933 127.177530 0.000000 0.000000 0.000000 
0.000519 0.949233 0.000292 -1.617996 -3.724999 7.515140 6.211234 -0.260773 -3.154059 -0.200935 0.193667 -5.211717 0.955269 5.815012 12.453186 0.000000 0.000000 0.000000 -1.783928 0.444769 -4.297522 -4.563787 -0.047401 -6.265802 2.839856 -1.440544 15.092556 0.000000 0.000000 0.000000 4.669697 0.377817 -6.214854 -1.871753 0.869866 -4.003154 -3.867946 4.733610 4.887517 8.007411 -5.505397 -4.711504 0.000000 0.000000 0.000000 -6.291035 8.083262 -4.006201 -44.406254 -8.155372 -2.379125 -149.697319 -55.206682 129.948186 0.000000 0.000000 0.000000 5.984478 -10.885777 -4.749443 58.157519 9.635144 -0.548336 138.987506 63.998983 125.534705 0.000000 0.000000 0.000000 
0.000386 0.949211 -0.000123 -1.504848 -3.342675 7.688120 6.087382 -0.281035 -3.480311 -0.102186 0.185238 -5.172728 0.775025 5.566384 12.462233 0.000000 0.000000 0.000000 -1.684232 0.448137 -4.348006 -4.893251 -0.046441 -6.453147 2.656861 -1.736719 15.158840 0.000000 0.000000 0.000000 4.720393 0.386085 -6.355924 -1.969187 0.915233 -3.869595 -4.227192 5.070117 4.620672 8.340339 -5.701544 -4.831000 0.000000 0.000000 0.000000 -5.880364 7.383375 -3.680347 -44.445571 -9.822554 -1.790190 -150.573156 -55.354772 131.060931 0.000000 0.000000 0.000000 6.016078 -10.875167 -4.724695 58.152680 10.190236 -0.188785 135.493666 64.338049 121.487371 0.000000 0.000000 0.000000 
0.000273 0.948983 -0.000003 -1.359982 -3.218078 7.554085 5.864534 -0.282650 -3.481714 0.044960 0.167467 -4.959839 0.726298 5.472552 12.342909 0.000000 0.000000 0.000000 -1.792186 0.414161 -3.942124 -4.950933 -0.076558 -6.873821 2.607858 -1.809725 15.175050 0.000000 0.000000 0.000000 4.717792 0.380564 -6.283155 -2.016270 0.936739 -3.913538 -4.478280 5.267300 4.580086 8.511488 -5.830393 -4.781738 0.000000 0.000000 0.000000 -5.929753 6.646115 -3.424075 -44.745444 -11.461444 -1.220824 -151.304820 -55.988097 132.631486 0.000000 0.000000 0.000000 5.889283 -10.510984 -4.542011 58.186304 9.977778 -0.263292 131.921169 64.857477 117.464394 0.000000 0.000000 0.000000 
